<svg xmlns="http://www.w3.org/2000/svg" width="485" height="105" viewBox="0 0 485 105" fill="none">
<g clip-path="url(#clip0_3312_8866)">
<path d="M67.29 51.3703C66.16 51.4303 65.32 52.0303 64.83 52.5103C64.35 52.9803 63.87 53.7103 63.87 54.9003C63.87 56.1603 64.17 56.8203 64.9 57.6003C65.35 58.1203 66.21 58.5603 67.38 58.5603C68.34 58.5603 69.03 58.2603 69.94 57.4803C70.54 56.9403 70.75 56.1103 70.75 54.9603C70.75 53.8103 70.42 53.2203 69.87 52.5603C69.34 51.8703 68.37 51.3003 67.29 51.3603" fill="black"/>
<path d="M78.38 51.3198C75.97 51.3198 75.52 53.7598 75.52 53.7598H81.43C81.43 53.7598 80.79 51.3198 78.37 51.3198" fill="black"/>
<path d="M86.71 43.3499C82.73 27.8899 68.64 16.3799 51.97 16.3799C46.6 16.3799 40.59 17.8599 36.94 19.6999C42.54 19.0899 45.35 23.3499 45.35 23.3499H57.29V25.8199H51.91L51.88 37.4299H49.26V25.8199H43.36V25.7999L43.33 25.8199C42.04 24.5599 40.25 23.4199 38.74 23.2099C35.12 22.7299 32.8 25.2999 32.8 28.5799C32.8 32.9599 37.37 35.2799 38.77 36.1699C50.91 43.5099 50.18 47.2499 50.18 50.1599C50.18 50.8499 50.07 51.4199 49.98 52.0099L56.8 37.2499H71.14C84.6 37.2499 86.56 42.7899 86.72 43.3399" fill="black"/>
<path d="M38.18 61.4201C35.84 61.4201 32.99 60.7901 30.17 58.7601L38.57 76.2401L47.04 58.1201C46.99 58.2001 43.75 61.4301 38.18 61.4301" fill="black"/>
<path d="M83.61 55.45H75.02C75.11 56.58 75.7 57.41 76.13 57.74C76.69 58.24 77.49 58.57 78.41 58.62C79.18 58.65 80.2 58.53 80.85 58.24L80.88 59.69C80.15 60.13 79.46 60.34 78.33 60.34C76.82 60.34 75.42 59.81 74.47 58.89C73.37 57.87 72.89 56.51 72.89 55.03C72.89 53.43 73.4 52.12 74.44 51.11C75.45 50.07 76.76 49.56 78.33 49.56C79.9 49.56 81.15 50.09 82.13 51.16C83.11 52.23 83.62 53.62 83.62 55.35V55.44L83.61 55.45ZM72.46 60.38H70.74V58.98C70.26 59.57 70 59.81 69.32 60.14C68.6 60.49 67.83 60.49 67.05 60.49C65.51 60.49 64.53 59.96 63.46 58.86C62.42 57.79 61.89 56.46 61.89 54.88C61.89 53.3 62.42 52.3 63.46 51.26C64.47 50.2 65.48 49.66 67.05 49.66C67.88 49.66 68.66 49.81 69.34 50.14C70.02 50.47 70.29 50.64 70.76 51.26V47.04H72.46V60.38V60.38ZM71.9 41H61V62.05H75.32C83 62.05 85.52 55.3 85.52 51.48C85.52 47.66 83.77 41.01 71.9 41.01" fill="black"/>
<path d="M16.09 52.2499C16.09 67.1399 25.23 79.9399 38.2 85.3499L17.63 41.8799C16.64 45.1699 16.09 48.6399 16.09 52.2499Z" fill="black"/>
<path d="M51.97 88.11C53.69 88.11 55.38 87.98 57.05 87.74V45.23L38.73 85.56C42.83 87.2 47.3 88.11 51.97 88.11Z" fill="black"/>
<path d="M75.34 66.0001H60.99V86.9601C74.15 83.5301 84.41 72.7901 87.13 59.3501C87.13 59.3501 83.21 66.0001 75.34 66.0001" fill="black"/>
<path d="M29.28 53.1102C32.76 56.2302 35.21 58.0102 38.31 58.0102C42.1 58.0102 45.94 56.6502 46.71 51.2402C47.29 47.1602 45.77 44.6202 38.01 39.8102C29.31 34.4202 28.87 31.1202 28.87 28.7802C28.87 26.4402 29.32 25.0002 30.3 23.7002C25.78 27.1402 22.09 31.6202 19.61 36.7802L27.46 53.1102H29.28V53.1102Z" fill="black"/>
<path d="M69.75 57.4299C68.86 58.1999 68.18 58.4999 67.22 58.4999C66.06 58.4999 65.2 58.0599 64.76 57.5499C64.04 56.7799 63.74 56.1299 63.74 54.8799C63.74 53.6299 64.22 52.9799 64.69 52.5099C65.17 52.0299 66 51.4399 67.12 51.3799C68.19 51.3199 69.15 51.8799 69.67 52.5699C70.21 53.2199 70.54 53.7599 70.54 54.9499C70.54 56.1399 70.33 56.9099 69.74 57.4399" fill="black"/>
<path d="M87.07 43.2603C87.07 43.2603 87.07 43.2903 87.08 43.3103C87.08 43.3103 87.08 43.2903 87.07 43.2603Z" fill="black"/>
<path d="M51.97 92.3301C29.88 92.3301 11.87 74.3101 11.87 52.2501C11.87 30.1901 29.88 12.2001 51.97 12.2001C74.06 12.2001 92.03 30.1901 92.03 52.2501C92.03 74.3101 74.03 92.3301 51.97 92.3301ZM51.97 0.310059C23.34 0.310059 0 23.6701 0 52.2701C0 80.8701 23.34 104.22 51.97 104.22C80.6 104.22 103.91 80.8901 103.91 52.2701C103.91 23.6501 80.57 0.310059 51.97 0.310059Z" fill="black"/>
</g>
<path d="M483.56 51.0498H115.94V52.8698H483.56V51.0498Z" fill="black"/>
<path d="M128.68 43.9501H120.14V7.02011H114.39V0.850098H134.43V7.02011H128.68V43.9501Z" fill="black"/>
<path d="M136.92 43.9501V0.850098H145.46V16.4701H148.49V0.850098H157.03V43.9501H148.49V23.3701H145.46V43.9501H136.92Z" fill="black"/>
<path d="M160.17 43.9501V0.850098H176.15V7.02011H168.71V16.8901H175.85V23.0601H168.71V37.7701H176.15V43.9401H160.17V43.9501Z" fill="black"/>
<path d="M203.51 16.23V9.26999C203.51 8.05999 203.33 6.41998 202 6.41998C200.67 6.41998 200.49 8.04999 200.49 9.26999C200.73 21.32 212.35 17.32 212.35 33.18V36.93C212.35 42.68 207.57 44.8 202.3 44.8C197.03 44.8 192.25 42.68 192.25 36.93V27H200.79V35.54C200.79 36.75 200.97 38.38 202.3 38.38C203.63 38.38 203.81 36.75 203.81 35.54C203.63 21.68 191.95 23.19 191.95 13.26V7.87C191.95 2.12 196.73 0 202 0C207.27 0 212.05 2.12 212.05 7.87V16.22H203.51V16.23Z" fill="black"/>
<path d="M215.25 7.87C215.25 2.12 220.03 0 225.3 0C230.57 0 235.35 2.12 235.35 7.87V36.92C235.35 42.67 230.57 44.79 225.3 44.79C220.03 44.79 215.25 42.67 215.25 36.92V7.87ZM226.81 9.25998C226.81 8.04998 226.63 6.40997 225.3 6.40997C223.97 6.40997 223.79 8.03998 223.79 9.25998V35.53C223.79 36.74 223.97 38.37 225.3 38.37C226.63 38.37 226.81 36.74 226.81 35.53V9.25998Z" fill="black"/>
<path d="M258.44 26.9998V36.9298C258.44 42.6798 253.66 44.7998 248.39 44.7998C243.12 44.7998 238.34 42.6798 238.34 36.9298V7.87976C238.34 2.12976 243.12 0.00976562 248.39 0.00976562C253.66 0.00976562 258.44 2.12976 258.44 7.87976V16.0498H249.9V9.26978C249.9 8.05978 249.72 6.41977 248.39 6.41977C247.06 6.41977 246.88 8.04978 246.88 9.26978V35.5398C246.88 36.7498 247.06 38.3798 248.39 38.3798C249.72 38.3798 249.9 36.7498 249.9 35.5398V26.9998H258.44Z" fill="black"/>
<path d="M261.75 43.9501V0.850098H270.29V43.9501H261.75Z" fill="black"/>
<path d="M273.75 43.9501V0.850098H289.73V7.02011H282.28V16.8901H289.42V23.0601H282.28V37.7701H289.73V43.9401H273.75V43.9501Z" fill="black"/>
<path d="M306.24 43.9501H297.71V7.02011H291.96V0.850098H312V7.02011H306.25V43.9501H306.24Z" fill="black"/>
<path d="M321.1 22.3401L314.02 0.850098H322.98L325.7 17.9801H325.82L328.48 0.850098H336.17L329.63 22.3401V43.9501H321.09V22.3401H321.1Z" fill="black"/>
<path d="M351.67 7.87C351.67 2.12 356.45 0 361.72 0C366.99 0 371.77 2.12 371.77 7.87V36.92C371.77 42.67 366.99 44.79 361.72 44.79C356.45 44.79 351.67 42.67 351.67 36.92V7.87ZM363.23 9.25998C363.23 8.04998 363.05 6.40997 361.72 6.40997C360.39 6.40997 360.21 8.03998 360.21 9.25998V35.53C360.21 36.74 360.39 38.37 361.72 38.37C363.05 38.37 363.23 36.74 363.23 35.53V9.25998Z" fill="black"/>
<path d="M374.89 43.9501V0.850098H390.87V7.02011H383.42V16.8901H390.56V23.0601H383.42V43.9401H374.89V43.9501Z" fill="black"/>
<path d="M126.92 76.3999V69.4399C126.92 68.2299 126.74 66.5899 125.41 66.5899C124.08 66.5899 123.9 68.2199 123.9 69.4399C124.14 81.4899 135.77 77.4899 135.77 93.3499V97.0999C135.77 102.85 130.99 104.97 125.72 104.97C120.45 104.97 115.67 102.85 115.67 97.0999V87.1699H124.21V95.7099C124.21 96.9199 124.39 98.5499 125.72 98.5499C127.05 98.5499 127.23 96.9199 127.23 95.7099C127.05 81.8499 115.37 83.3599 115.37 73.4299V68.0399C115.37 62.2899 120.15 60.1699 125.42 60.1699C130.69 60.1699 135.47 62.2899 135.47 68.0399V76.3899H126.93L126.92 76.3999Z" fill="black"/>
<path d="M155.9 104.13V95.1699H163.59V104.13H155.9Z" fill="black"/>
<path d="M187.76 96.2598H187.88L191.03 61.0298H198.72L192.97 104.13H181.65L176.57 61.0298H185.41L187.77 96.2598H187.76Z" fill="black"/>
<path d="M201.57 104.13V61.0298H210.11V104.13H201.57Z" fill="black"/>
<path d="M213.57 104.13V61.0298H225.43L229.79 88.9998H229.91V61.0298H236.57V104.13H226.4L220.35 70.2298L220.23 70.3498V104.13H213.57Z" fill="black"/>
<path d="M259.79 87.1802V97.1102C259.79 102.86 255.01 104.98 249.74 104.98C244.47 104.98 239.69 102.86 239.69 97.1102V68.0502C239.69 62.3002 244.47 60.1802 249.74 60.1802C255.01 60.1802 259.79 62.3002 259.79 68.0502V76.2202H251.25V69.4402C251.25 68.2302 251.07 66.5902 249.74 66.5902C248.41 66.5902 248.23 68.2202 248.23 69.4402V95.7102C248.23 96.9202 248.41 98.5502 249.74 98.5502C251.07 98.5502 251.25 96.9202 251.25 95.7102V87.1702H259.79V87.1802Z" fill="black"/>
<path d="M262.89 104.13V61.0298H278.87V67.2098H271.42V77.0798H278.56V83.2498H271.42V97.9598H278.87V104.13H262.89Z" fill="black"/>
<path d="M368.16 104.13V61.1001H384.12V67.2701H376.69V77.1201H383.82V83.2801H376.69V97.9701H384.12V104.14H368.16V104.13Z" fill="black"/>
<path d="M281.7 104.13V61.0298H293.56L297.92 88.9998H298.04V61.0298H304.7V104.13H294.53L288.48 70.2298L288.36 70.3498V104.13H281.7Z" fill="black"/>
<path d="M321.59 104.13H313.05V67.2098H307.3V61.0298H327.34V67.2098H321.59V104.13Z" fill="black"/>
<path d="M152.23 104.13H143.71V67.2899H137.97V61.1299H157.96V67.2899H152.22V104.13H152.23Z" fill="black"/>
<path d="M345.54 61.0298H355.59C360.86 61.0298 365.64 63.1498 365.64 68.8998V96.2598C365.64 102.01 360.86 104.13 355.59 104.13H345.54V61.0298ZM354.08 97.9498H355.59C356.92 97.9498 357.1 96.3198 357.1 95.1098V70.0498C357.1 68.8398 356.92 67.2098 355.59 67.2098H354.08V97.9598V97.9498Z" fill="black"/>
<path d="M400.25 104.13V61.0298H410.3C415.57 61.0298 420.35 63.1498 420.35 69.7498V78.5898C420.35 85.1898 415.57 87.3098 410.3 87.3098H408.79V104.14H400.26L400.25 104.13ZM408.78 81.1298H409.81C411.2 81.1298 411.81 80.4598 411.81 78.4098V69.9398C411.81 67.8798 411.21 67.2198 409.81 67.2198H408.78V81.1398V81.1298Z" fill="black"/>
<path d="M427.2 61.0298H438.52L443.67 104.13H434.77L433.8 92.3898H429.74L428.41 104.13H420.78L427.2 61.0298ZM433.25 86.2098L432.1 68.5298H431.86L430.47 86.2098H433.25Z" fill="black"/>
<path d="M465.78 97.1098C465.78 102.86 461 104.98 455.73 104.98C450.46 104.98 445.68 102.86 445.68 97.1098V61.0298H454.22V95.7198C454.22 96.9298 454.4 98.5598 455.73 98.5598C457.06 98.5598 457.24 96.9298 457.24 95.7198V61.0298H465.78V97.1098Z" fill="black"/>
<path d="M468.82 104.13V61.0298H477.35V97.9498H484.92V104.12H468.82V104.13Z" fill="black"/>
<defs>
<clipPath id="clip0_3312_8866">
<rect width="103.91" height="103.9" fill="black" transform="translate(0 0.310059)"/>
</clipPath>
</defs>
</svg>