<svg xmlns="http://www.w3.org/2000/svg" viewBox="0 0 40 40"><path fill="#215732" d="m20.1,1.15C9.61,1.15,1.1,9.65,1.1,20.15s8.51,19,19,19,19-8.51,19-19S30.6,1.15,20.1,1.15Zm-.15,6.94c4.59,0,8.32,3.71,8.34,8.27,0,.51-.04,1.02-.13,1.51l-.09.49-.28-.41s-.4-.57-.95-1.09c-.54-.51-1.41-.99-1.42-1l-.09-.05-.02-.1c-.39-2.64-2.7-4.63-5.37-4.63-3.02.01-5.44,2.46-5.43,5.45.01,2.98,2.45,5.41,5.43,5.41h0c.33,0,.65-.03.96-.09l.14-.02.07.12s.41.69.47,1.35c.06.65-.06,1.11-.06,1.13l-.03.13-.13.02c-.44.07-.89.11-1.34.11h-.03c-4.56,0-8.29-3.71-8.3-8.27-.02-4.58,3.69-8.32,8.27-8.33Zm.15,24.13c-4.64,0-8.42-3.78-8.42-8.42,0-.51.05-1.03.14-1.53l.09-.49.28.41s.4.58.95,1.1c.55.52,1.43,1.02,1.44,1.02l.09.05v.1c.4,2.69,2.74,4.72,5.47,4.72,3.04,0,5.51-2.47,5.51-5.51s-2.47-5.51-5.51-5.51c-.32,0-.64.03-.95.08l-.14.02-.07-.12s-.41-.7-.47-1.37c-.06-.66.06-1.12.07-1.14l.04-.13.13-.02c.45-.07.91-.11,1.36-.11,4.64,0,8.42,3.78,8.42,8.42s-3.78,8.42-8.42,8.42Z"></path></svg>